<?xml version="1.0" encoding="UTF-8" standalone="no"?>
<svg width="200px" height="200px" viewBox="0 0 200 200" version="1.1" xmlns="http://www.w3.org/2000/svg" xmlns:xlink="http://www.w3.org/1999/xlink">
    <!-- Generator: Sketch 39.1 (31720) - http://www.bohemiancoding.com/sketch -->
    <title>Artboard 19</title>
    <desc>Created with Sketch.</desc>
    <defs>
        <path d="M70.1659591,135.456618 L102.412584,135.456618 C102.412584,135.456618 108.291526,136.976567 108.291526,142.783475 C108.291526,148.590384 102.412584,150.074577 102.412584,150.074577 L70.1659591,150.074577 L64.2633354,150.074577 L52.6089727,150.074577 L47.5411281,149.45782 C33.093275,145.828402 24.337888,133.212726 23.1946807,120.957184 C21.4051152,101.100274 36.2742845,88.7278656 45.6983891,86.4618031 C45.9143992,81.4688507 47.9324152,76.8675479 49.1055841,75.1894068 C50.278753,73.5112657 53.0704989,68.0032692 62.6512981,64.8983692 C66.417495,63.6778379 73.9843356,63.3273016 80.0907703,66.8778892 C83.5779829,60.2339663 95.8728434,48.8409112 113.935798,48.8409112 C134.280652,48.8409112 152.941342,62.0170359 154.491397,86.6482433 C164.527349,90.3702559 177.57125,100.171508 176.627189,120.279171 C174.998619,134.104708 166.750077,143.997963 154.491402,148.931088 C151.62142,149.840588 148.138362,150.074577 148.138362,150.074577 C148.138361,150.074577 146.540382,150.074577 146.540382,150.074577 C146.540382,150.074577 140.66051,148.639005 140.66051,142.783475 C140.66051,136.927946 146.540382,135.456618 146.540382,135.456618 C146.540382,135.456618 148.138367,134.671001 148.496646,134.486348 C152.729942,132.304548 162.617732,126.329095 162.617732,114.882771 C162.15826,99.4886684 149.921708,95.2623912 142.131171,93.9026224 C141.31734,93.7605754 140.659944,92.0277303 140.66051,92.0067893 C141.149357,73.4662174 124.741367,65.2898401 119.472782,64.5008206 C116.746092,64.0108563 110.979462,62.0179297 101.271351,66.0415 C89.8690606,71.2498508 86.5861971,82.1211067 86.068955,82.9753713 C85.6437508,83.9193704 84.6002961,85.2473495 82.4706869,83.9592492 C81.3673986,81.5483961 73.7316641,73.2856784 63.7930991,78.3647901 C56.0881119,83.3048314 56.7240675,89.69662 57.0473331,92.0067893 C57.1644829,92.8439829 57.939634,93.3659916 57.0473331,94.3981163 C48.7028352,94.6303176 36.7646442,102.253633 37.744408,116.375187 C38.3457939,125.677392 44.9978175,132.64125 52.6089727,134.671 C55.7316221,135.641271 58.6520753,135.456618 58.6520753,135.456618 L64.2633354,135.456618" id="path-1"></path>
        <filter x="-50%" y="-50%" width="200%" height="200%" filterUnits="objectBoundingBox" id="filter-2">
            <feOffset dx="0" dy="4" in="SourceAlpha" result="shadowOffsetOuter1"></feOffset>
            <feGaussianBlur stdDeviation="2" in="shadowOffsetOuter1" result="shadowBlurOuter1"></feGaussianBlur>
            <feColorMatrix values="0 0 0 0 0   0 0 0 0 0   0 0 0 0 0  0 0 0 0.569718071 0" type="matrix" in="shadowBlurOuter1"></feColorMatrix>
        </filter>
        <path d="M124.458615,151.549296 C129.328889,151.549296 133.277027,147.615621 133.277027,142.763187 C133.277027,137.910753 129.328889,133.977078 124.458615,133.977078 C119.58834,133.977078 115.640203,137.910753 115.640203,142.763187 C115.640203,147.615621 119.58834,151.549296 124.458615,151.549296 Z" id="path-3"></path>
        <filter x="-50%" y="-50%" width="200%" height="200%" filterUnits="objectBoundingBox" id="filter-4">
            <feOffset dx="0" dy="4" in="SourceAlpha" result="shadowOffsetOuter1"></feOffset>
            <feGaussianBlur stdDeviation="2" in="shadowOffsetOuter1" result="shadowBlurOuter1"></feGaussianBlur>
            <feColorMatrix values="0 0 0 0 0   0 0 0 0 0   0 0 0 0 0  0 0 0 0.5 0" type="matrix" in="shadowBlurOuter1"></feColorMatrix>
        </filter>
    </defs>
    <g id="Page-6" stroke="none" stroke-width="1" fill="none" fill-rule="evenodd">
        <g id="Artboard-19">
            <g id="Group-21">
                <rect id="Rectangle-773" fill-opacity="0.01" fill="#FFFFFF" x="0" y="0" width="200" height="200"></rect>
                <g id="Combined-Shape">
                    <use fill="black" fill-opacity="1" filter="url(#filter-2)" xlink:href="#path-1"></use>
                    <use fill="#E2E4E6" fill-rule="evenodd" xlink:href="#path-1"></use>
                </g>
                <g id="Oval-255-Copy">
                    <use fill="black" fill-opacity="1" filter="url(#filter-4)" xlink:href="#path-3"></use>
                    <use fill="#E1E2E4" fill-rule="evenodd" xlink:href="#path-3"></use>
                </g>
            </g>
        </g>
    </g>
</svg>